# xmcd
#
# Track frame offsets:
#	150
#	16218
#	22183
#	36224
#	42788
#	58960
#	75196
#	88210
#	95163
#	110188
#	113537
#	125341
#	130268
#	139081
#	144811
#	160985
#	164282
#	180054
#	192185
#	210179
#	226527
#	240506
#	255314
#
# Disc length: 3640 seconds
#
# Revision: 0
# Processed by: cddbd v1.5.2PL0 Copyright (c) Steve Scherf et al.
# Submitted via: audiograbber 1.83.01
#
DISCID=200e3617
DTITLE=Monika Finsterbusch - Prinzessin Lillifee und der kleine Delfin
DYEAR=2008
DGENRE=Musical
TTITLE0=01 Lillifees Welt (Lied)
TTITLE1=02 Prinzessin Lillifee und der kleine Delfin
TTITLE2=03 Leinen Los! (Lied)
TTITLE3=04 Dunkle Wolken
TTITLE4=05 Gestrandet (Lied)
TTITLE5=06 Die einsame Insel
TTITLE6=07 Es gibt immer einen Ausweg (Lied)
TTITLE7=08 Geschafft!
TTITLE8=09 Die Sonnenscheinparty (Lied)
TTITLE9=10 Pedro
TTITLE10=11 Der Seepapagei (Lied)
TTITLE11=12 Wo ist Crissy?
TTITLE12=13 Delfine in Not (Lied)
TTITLE13=14 Lillifee taucht ins Meer
TTITLE14=15 Du hast mich gerettet (Lied)
TTITLE15=16 Die Freunde
TTITLE16=17 Allein auf dem Meer (Lied)
TTITLE17=18 Der Abschied
TTITLE18=19 Über das Ufer  (Lied)
TTITLE19=20 Lillifees Welt (Playback)
TTITLE20=21 Es gibt immer einen Ausweg (Playback)
TTITLE21=22 Die Sonnenscheinparty (Playback)
TTITLE22=23 Über das Ufer (Playback)
EXTD=
EXTT0=
EXTT1=
EXTT2=
EXTT3=
EXTT4=
EXTT5=
EXTT6=
EXTT7=
EXTT8=
EXTT9=
EXTT10=
EXTT11=
EXTT12=
EXTT13=
EXTT14=
EXTT15=
EXTT16=
EXTT17=
EXTT18=
EXTT19=
EXTT20=
EXTT21=
EXTT22=
PLAYORDER=
